<svg xmlns="http://www.w3.org/2000/svg" viewBox="0 0 900 650"><defs><linearGradient id="g" x1="0" x2="1" y1="0" y2="1"><stop stop-color="#0f766e"/><stop offset="1" stop-color="#f59e0b"/></linearGradient></defs><rect width="900" height="650" fill="#e9fbf8"/><circle cx="740" cy="110" r="130" fill="#fde68a" opacity=".8"/><circle cx="180" cy="560" r="170" fill="#99f6e4" opacity=".9"/><path d="M0 470 C170 380 290 560 460 450 S740 300 900 410 V650 H0Z" fill="url(#g)" opacity=".25"/><g fill="#fff" opacity=".95"><rect x="120" y="210" width="210" height="290" rx="26"/><rect x="370" y="150" width="180" height="350" rx="26"/><rect x="590" y="240" width="190" height="260" rx="26"/></g><g fill="#0f766e"><circle cx="225" cy="175" r="58"/><circle cx="460" cy="112" r="50"/><circle cx="685" cy="202" r="55"/></g><g fill="#f59e0b"><path d="M165 310h120v25H165zM165 360h120v25H165zM410 260h100v25H410zM410 310h100v25H410zM635 340h100v25H635z"/></g></svg>