<svg xmlns="http://www.w3.org/2000/svg" viewBox="0 0 512 512" role="img" aria-labelledby="title desc">
  <title id="title">Dev Sthan Bajrang Bali Seva Samiti Logo</title>
  <desc id="desc">A saffron and maroon emblem with a temple arch, Hanuman mace, flame, and service hands.</desc>
  <defs>
    <linearGradient id="saffron" x1="70" y1="50" x2="440" y2="470" gradientUnits="userSpaceOnUse">
      <stop offset="0" stop-color="#ffb703"/>
      <stop offset="0.48" stop-color="#f97316"/>
      <stop offset="1" stop-color="#b91c1c"/>
    </linearGradient>
    <linearGradient id="deep" x1="130" y1="95" x2="385" y2="430" gradientUnits="userSpaceOnUse">
      <stop offset="0" stop-color="#7f1d1d"/>
      <stop offset="1" stop-color="#451a03"/>
    </linearGradient>
    <filter id="shadow" x="-20%" y="-20%" width="140%" height="140%">
      <feDropShadow dx="0" dy="14" stdDeviation="14" flood-color="#7f1d1d" flood-opacity=".22"/>
    </filter>
  </defs>
  <circle cx="256" cy="256" r="232" fill="#fff7ed"/>
  <circle cx="256" cy="256" r="218" fill="none" stroke="url(#saffron)" stroke-width="18"/>
  <circle cx="256" cy="256" r="190" fill="url(#saffron)" opacity=".12"/>
  <g filter="url(#shadow)">
    <path d="M128 360V225c0-72 58-130 128-130s128 58 128 130v135" fill="#fff" stroke="url(#deep)" stroke-width="16" stroke-linejoin="round"/>
    <path d="M166 360V231c0-51 40-92 90-92s90 41 90 92v129" fill="#fff7ed" stroke="#f97316" stroke-width="10"/>
    <path d="M114 374h284v34H114z" rx="12" fill="url(#deep)"/>
    <path d="M146 408h220v34H146z" rx="12" fill="#f97316"/>
  </g>
  <g transform="translate(0 8)">
    <path d="M263 170c31 39 55 65 55 103 0 43-28 76-62 76s-62-33-62-76c0-35 22-66 69-103z" fill="url(#saffron)"/>
    <path d="M258 216c17 25 29 42 29 65 0 24-13 42-31 42s-31-18-31-42c0-21 12-40 33-65z" fill="#fff7ed" opacity=".9"/>
  </g>
  <g stroke="#7f1d1d" stroke-width="16" stroke-linecap="round" stroke-linejoin="round" fill="none">
    <path d="M338 178l51-51"/>
    <path d="M372 112l32 32"/>
    <circle cx="405" cy="111" r="23" fill="#ffb703" stroke="#7f1d1d"/>
  </g>
  <g fill="#7f1d1d">
    <path d="M174 308c24 3 44 19 57 43 4 7 0 16-8 18-34 8-72-10-89-43-4-8 2-18 11-18h29z" opacity=".9"/>
    <path d="M338 308c-24 3-44 19-57 43-4 7 0 16 8 18 34 8 72-10 89-43 4-8-2-18-11-18h-29z" opacity=".9"/>
  </g>
  <text x="256" y="476" text-anchor="middle" font-family="Arial, sans-serif" font-size="29" font-weight="800" fill="#7f1d1d">सेवा • श्रद्धा • विश्वास</text>
</svg>