<svg xmlns="http://www.w3.org/2000/svg" viewBox="0 0 900 420"><rect width="900" height="420" fill="#eefbf9"/><path d="M0 130h900M0 260h900M180 0v420M360 0v420M540 0v420M720 0v420" stroke="#b7e4df" stroke-width="6"/><path d="M65 330C170 210 250 260 330 170s178-80 258-5 155 30 245-55" fill="none" stroke="#0f766e" stroke-width="22" stroke-linecap="round"/><circle cx="455" cy="150" r="45" fill="#f59e0b"/><path d="M455 245s78-80 78-140a78 78 0 1 0-156 0c0 60 78 140 78 140z" fill="#0f766e"/><circle cx="455" cy="105" r="26" fill="#fff"/></svg>