<svg xmlns="http://www.w3.org/2000/svg" viewBox="0 0 760 620"><rect width="760" height="620" fill="#eefbf9"/><path d="M0 430c120-80 230-70 340 10s270 95 420-30v210H0z" fill="#ccfbf1"/><circle cx="600" cy="135" r="95" fill="#fde68a"/><g fill="#0f766e"><circle cx="250" cy="215" r="62"/><circle cx="390" cy="185" r="70"/><circle cx="520" cy="230" r="62"/></g><g fill="#fff"><path d="M155 475c8-110 70-175 170-175s162 65 170 175z"/><path d="M330 480c6-125 78-200 190-200s184 75 190 200z" opacity=".92"/><path d="M45 480c6-125 78-200 190-200s184 75 190 200z" opacity=".9"/></g><path d="M285 345c58 55 135 56 198 0" stroke="#f59e0b" stroke-width="25" fill="none" stroke-linecap="round"/></svg>